# xmcd
#
# Track frame offsets:
#	150
#	10992
#	21608
#	34118
#	44467
#	55451
#	66047
#	76350
#	87291
#
# Disc length: 1321 seconds
#
# Revision: 1
# Processed by: cddbd v1.5.1PL0 Copyright (c) Steve Scherf et al.
# Submitted via: audiograbber 1.83.01
#
DISCID=74052709
DTITLE=Patsy Cline - The Patsy Cline Collection - Disc 2
DYEAR=1900
DGENRE=
TTITLE0=I Cried All The Way To The Alter
TTITLE1=Honky Tonk Merry Go Round
TTITLE2=Fingerprints
TTITLE3=He'll Do For You (What He's Done For Me)
TTITLE4=I Can't Forget
TTITLE5=I Don't Wanna
TTITLE6=Pick Me Up (On Your Way Down)
TTITLE7=There He Goes
TTITLE8=If I Could Only Stay Asleep
EXTD=
EXTT0=
EXTT1=
EXTT2=
EXTT3=
EXTT4=
EXTT5=
EXTT6=
EXTT7=
EXTT8=
PLAYORDER=
